<svg width="159" height="80" viewBox="0 0 159 80" fill="none" xmlns="http://www.w3.org/2000/svg">
<g clip-path="url(#clip0_80_2407)">
<path d="M100.5 5.9806C100.606 5.92014 100.712 5.85968 100.823 5.80426L100.314 4.84696C100.016 5.00315 99.7241 5.16942 99.4267 5.33568C93.5591 1.94483 86.7538 0 79.5 0C72.2461 0 65.4409 1.94483 59.5733 5.33568C59.2457 5.14926 58.913 4.96788 58.5803 4.79154L58.0711 5.74884C58.2123 5.82441 58.3534 5.90503 58.4946 5.9806C47.1425 13.0243 39.566 25.6002 39.566 39.9093C39.566 61.9171 57.4814 79.8186 79.495 79.8186C101.509 79.8186 119.424 61.9121 119.424 39.9093C119.424 25.6002 111.847 13.0243 100.495 5.9806H100.5ZM79.5 78.7404C58.0812 78.7404 40.6548 61.3226 40.6548 39.9143C40.6548 25.7816 48.2515 13.3871 59.5784 6.59529C60.2942 7.01348 60.9949 7.45686 61.6804 7.91536L62.2904 7.01852C61.756 6.65575 61.2116 6.3081 60.6571 5.97556C66.2424 2.86182 72.6696 1.0883 79.505 1.0883C86.3405 1.0883 92.7676 2.86182 98.353 5.97556C97.7632 6.33329 97.1885 6.70613 96.6189 7.08905L97.2288 7.98589C97.9446 7.5022 98.6806 7.03867 99.4267 6.60033C110.754 13.3921 118.35 25.7866 118.35 39.9194C118.35 61.3276 100.924 78.7454 79.505 78.7454L79.5 78.7404Z" fill="white"/>
<path d="M80.5132 35.3294C80.6594 34.1403 80.856 32.9512 81.1131 31.7874L80.0545 31.5556C79.8277 32.5935 79.6411 33.6465 79.5 34.7046C79.3538 33.6062 79.1572 32.5078 78.9203 31.4296L77.8617 31.6614C78.1289 32.8656 78.3355 34.0949 78.4868 35.3243C76.3797 35.7879 74.8069 37.6621 74.8069 39.9042C74.8069 42.499 76.909 44.6 79.505 44.6C82.1011 44.6 84.2031 42.499 84.2031 39.9042C84.2031 37.6621 82.6254 35.7879 80.5233 35.3243L80.5132 35.3294Z" fill="white"/>
<path d="M93.2365 70.5278C94.3354 71.4599 95.4897 72.3366 96.6794 73.1427L97.2893 72.2459C96.135 71.4649 95.0058 70.6084 93.9422 69.7015L93.2415 70.5278H93.2365Z" fill="white"/>
<path d="M82.8371 56.8838C83.442 58.1837 84.1275 59.4685 84.8685 60.6978L85.7961 60.1386C85.0752 58.9445 84.4098 57.6949 83.82 56.4303L82.8371 56.8888V56.8838Z" fill="white"/>
<path d="M87.2982 64.27C88.1703 65.4138 89.113 66.5172 90.101 67.5601L90.8874 66.8144C89.9246 65.8017 89.0071 64.7235 88.1602 63.6151L87.2982 64.27Z" fill="white"/>
<path d="M93.181 9.70398C92.0871 10.6361 91.0336 11.6337 90.0456 12.6817L90.8319 13.4274C91.7897 12.4146 92.8181 11.4372 93.8817 10.5303L93.181 9.70398Z" fill="white"/>
<path d="M80.0696 48.7114C80.3771 50.1121 80.7703 51.5128 81.229 52.8731L82.2574 52.5255C81.8087 51.2054 81.4307 49.84 81.1332 48.4746L80.0747 48.7064L80.0696 48.7114Z" fill="white"/>
<path d="M108.621 2.68547L108.329 1.64252C106.943 2.03048 105.566 2.49401 104.236 3.02808L104.639 4.03577C105.934 3.51681 107.275 3.06335 108.621 2.69051V2.68547Z" fill="white"/>
<path d="M158.758 35.6921C158.602 34.2612 158.365 32.8303 158.057 31.4296L156.999 31.6614C157.301 33.0218 157.528 34.4174 157.684 35.808L158.763 35.6921H158.758Z" fill="white"/>
<path d="M116.903 1.32508L116.843 0.241821C115.406 0.322436 113.96 0.478627 112.548 0.710394L112.725 1.77854C114.101 1.55181 115.507 1.40066 116.903 1.32508Z" fill="white"/>
<path d="M83.7848 23.8267L82.8018 23.3732C82.1969 24.6782 81.6625 26.0285 81.2038 27.3888L82.2322 27.7315C82.6758 26.4064 83.2 25.0913 83.7848 23.8267Z" fill="white"/>
<path d="M100.384 75.3747C101.655 76.0499 102.975 76.6595 104.311 77.1885L104.715 76.1809C103.419 75.6669 102.134 75.0724 100.899 74.4174L100.389 75.3747H100.384Z" fill="white"/>
<path d="M88.1149 16.6318L87.2529 15.9768C86.3859 17.1205 85.5692 18.3247 84.8282 19.5541L85.7557 20.1133C86.4766 18.9192 87.268 17.7453 88.1149 16.6318Z" fill="white"/>
<path d="M108.41 78.5641C109.791 78.947 111.212 79.2543 112.634 79.4861L112.805 78.418C111.424 78.1963 110.043 77.894 108.697 77.5211L108.41 78.5641Z" fill="white"/>
<path d="M152.361 60.1083L153.289 60.6676C154.03 59.4382 154.715 58.1534 155.315 56.8485L154.332 56.395C153.747 57.6597 153.082 58.9092 152.361 60.1083Z" fill="white"/>
<path d="M144.865 9.62842L144.165 10.4547C145.228 11.3566 146.262 12.329 147.224 13.3417L148.011 12.596C147.023 11.5531 145.964 10.5555 144.87 9.62842H144.865Z" fill="white"/>
<path d="M116.984 78.8664L116.929 79.9496C117.639 79.9849 118.36 80.005 119.071 80.005C119.797 80.005 120.533 79.9849 121.254 79.9446L121.198 78.8613C119.807 78.9369 118.385 78.9369 116.989 78.8613L116.984 78.8664Z" fill="white"/>
<path d="M150.814 15.8811L149.952 16.5411C150.798 17.6496 151.595 18.8185 152.321 20.0126L153.248 19.4533C152.502 18.224 151.686 17.0248 150.814 15.8861V15.8811Z" fill="white"/>
<path d="M155.285 23.2624L154.302 23.7209C154.892 24.9855 155.416 26.3006 155.865 27.6206L156.893 27.273C156.429 25.9126 155.89 24.5623 155.285 23.2624Z" fill="white"/>
<path d="M157.916 40.0101V40.0907C157.916 41.4914 157.841 42.9072 157.694 44.2877L158.773 44.4036C158.924 42.9827 159.005 41.5317 159.005 40.0907V40.0101H157.921H157.916Z" fill="white"/>
<path d="M155.895 52.4902L156.923 52.8379C157.382 51.4775 157.77 50.0768 158.078 48.6711L157.019 48.4393C156.716 49.8047 156.343 51.1702 155.895 52.4902Z" fill="white"/>
<path d="M147.275 66.7892L148.061 67.5349C149.049 66.492 149.992 65.3835 150.859 64.2448L149.997 63.5898C149.15 64.7033 148.233 65.7765 147.275 66.7943V66.7892Z" fill="white"/>
<path d="M133.463 76.1658L133.866 77.1734C135.197 76.6394 136.518 76.0297 137.788 75.3546L137.279 74.3973C136.044 75.0523 134.758 75.6468 133.463 76.1658Z" fill="white"/>
<path d="M129.687 1.60724L129.4 2.65019C130.751 3.02303 132.092 3.47145 133.387 3.98537L133.785 2.97769C132.45 2.44865 131.073 1.98512 129.687 1.60724Z" fill="white"/>
<path d="M137.717 4.79156L137.208 5.74886C138.443 6.40386 139.658 7.12939 140.812 7.91538L141.422 7.01855C140.233 6.2124 138.983 5.46671 137.717 4.79156Z" fill="white"/>
<path d="M140.878 72.2257L141.488 73.1226C142.673 72.3164 143.832 71.4347 144.926 70.5026L144.225 69.6763C143.161 70.5832 142.032 71.4397 140.878 72.2207V72.2257Z" fill="white"/>
<path d="M125.372 78.4129L125.549 79.481C126.965 79.2492 128.387 78.9369 129.773 78.5539L129.48 77.511C128.135 77.8838 126.753 78.1861 125.372 78.4129Z" fill="white"/>
<path d="M121.168 0.236816L121.113 1.32008C122.514 1.39061 123.92 1.54177 125.297 1.76346L125.468 0.695312C124.056 0.468584 122.61 0.312393 121.168 0.241855V0.236816Z" fill="white"/>
<path d="M1.97603 31.7874L0.91744 31.5556C0.609945 32.9563 0.378064 34.3922 0.226837 35.8181L1.30559 35.934C1.45178 34.5434 1.67862 33.1477 1.97603 31.7874Z" fill="white"/>
<path d="M4.6477 23.8267L3.66473 23.3732C3.05982 24.6782 2.52549 26.0285 2.06676 27.3888L3.09511 27.7315C3.53871 26.4064 4.06296 25.0913 4.6477 23.8267Z" fill="white"/>
<path d="M3.69498 56.8838C4.29988 58.1837 4.98545 59.4685 5.72646 60.6978L6.65398 60.1386C5.93314 58.9445 5.26774 57.6949 4.67795 56.4303L3.69498 56.8888V56.8838Z" fill="white"/>
<path d="M8.15617 64.27C9.02825 65.4138 9.9709 66.5172 10.9589 67.5601L11.7453 66.8144C10.7825 65.8017 9.86504 64.7235 9.01817 63.6151L8.15617 64.27Z" fill="white"/>
<path d="M0.932564 48.7114C1.24006 50.1121 1.63325 51.5128 2.09197 52.8731L3.12031 52.5255C2.67167 51.2054 2.29361 49.84 1.99619 48.4746L0.937605 48.7064L0.932564 48.7114Z" fill="white"/>
<path d="M1.08379 40.131H0C0 41.572 0.0806544 43.023 0.236922 44.4439L1.31567 44.328C1.16445 42.9424 1.08883 41.5317 1.08883 40.131H1.08379Z" fill="white"/>
<path d="M54.6534 2.98275C53.3176 2.45372 51.9414 1.99019 50.5552 1.6123L50.2678 2.65526C51.6188 3.0281 52.9597 3.47652 54.2552 3.99044L54.6534 2.98275Z" fill="white"/>
<path d="M46.3259 0.690274C44.9144 0.463545 43.4677 0.307354 42.026 0.236816L41.9705 1.32008C43.3719 1.39061 44.7783 1.54177 46.1545 1.76346L46.3259 0.695312V0.690274Z" fill="white"/>
<path d="M21.6859 5.80428L21.1768 4.84698C19.9115 5.52213 18.6664 6.27286 17.4768 7.08404L18.0867 7.98088C19.2411 7.19489 20.4509 6.46432 21.6859 5.80428Z" fill="white"/>
<path d="M8.9728 16.6318L8.11081 15.9768C7.24377 17.1205 6.42715 18.3247 5.68613 19.5541L6.61366 20.1133C7.33451 18.9192 8.12593 17.7453 8.9728 16.6318Z" fill="white"/>
<path d="M29.4792 2.68547L29.1868 1.64252C27.8006 2.03048 26.4244 2.49401 25.0936 3.02808L25.4969 4.03577C26.7924 3.51681 28.1333 3.06335 29.4792 2.69051V2.68547Z" fill="white"/>
<path d="M29.2675 78.5641C30.6487 78.947 32.0702 79.2543 33.4917 79.4861L33.6631 78.418C32.2819 78.1963 30.9007 77.894 29.5548 77.5211L29.2675 78.5641Z" fill="white"/>
<path d="M14.0389 9.70398C12.945 10.6361 11.8915 11.6337 10.9035 12.6817L11.6898 13.4274C12.6476 12.4146 13.676 11.4372 14.7396 10.5303L14.0389 9.70398Z" fill="white"/>
<path d="M65.7283 9.62842L65.0276 10.4547C66.0912 11.3566 67.1246 12.329 68.0874 13.3417L68.8738 12.596C67.8858 11.5531 66.8272 10.5555 65.7333 9.62842H65.7283Z" fill="white"/>
<path d="M77.7558 27.2679C77.2921 25.9075 76.7527 24.5572 76.1478 23.2573L75.1648 23.7158C75.7546 24.9805 76.2789 26.2955 76.7275 27.6156L77.7558 27.2679Z" fill="white"/>
<path d="M73.2241 60.1083L74.1516 60.6676C74.8926 59.4382 75.5782 58.1534 76.1781 56.8485L75.1951 56.395C74.6103 57.6597 73.9449 58.9092 73.2241 60.1083Z" fill="white"/>
<path d="M54.3258 76.1658L54.729 77.1734C56.0598 76.6394 57.3805 76.0297 58.6508 75.3546L58.1417 74.3973C56.9067 75.0523 55.6213 75.6468 54.3258 76.1658Z" fill="white"/>
<path d="M68.1378 66.7892L68.9242 67.5349C69.9122 66.492 70.8549 65.3835 71.7219 64.2448L70.8599 63.5898C70.013 64.7033 69.0956 65.7765 68.1378 66.7943V66.7892Z" fill="white"/>
<path d="M71.6765 15.8811L70.8145 16.5411C71.6614 17.6496 72.4579 18.8185 73.1837 20.0126L74.1113 19.4533C73.3652 18.224 72.5486 17.0248 71.6765 15.8861V15.8811Z" fill="white"/>
<path d="M61.7409 72.2257L62.3509 73.1226C63.5355 72.3164 64.6949 71.4347 65.7887 70.5026L65.0881 69.6763C64.0244 70.5832 62.8953 71.4397 61.7409 72.2207V72.2257Z" fill="white"/>
<path d="M21.2474 75.3747C22.5177 76.0499 23.8384 76.6595 25.1742 77.1885L25.5775 76.1809C24.282 75.6669 22.9966 75.0724 21.7616 74.4174L21.2524 75.3747H21.2474Z" fill="white"/>
<path d="M46.2351 78.4129L46.4115 79.481C47.828 79.2492 49.2496 78.9369 50.6358 78.5539L50.3434 77.511C48.9975 77.8838 47.6163 78.1861 46.2351 78.4129Z" fill="white"/>
<path d="M14.0994 70.5278C15.1983 71.4599 16.3527 72.3366 17.5423 73.1427L18.1523 72.2459C16.9979 71.4649 15.8687 70.6084 14.8051 69.7015L14.1044 70.5278H14.0994Z" fill="white"/>
<path d="M76.7527 52.4902L77.7811 52.8379C78.2398 51.4775 78.6279 50.0768 78.9354 48.6711L77.8768 48.4393C77.5744 49.8047 77.2014 51.1702 76.7527 52.4902Z" fill="white"/>
<path d="M33.4111 0.710394L33.5875 1.77854C34.9637 1.55181 36.3701 1.40066 37.7664 1.32508L37.7059 0.241821C36.2693 0.322436 34.8225 0.478627 33.4111 0.710394Z" fill="white"/>
<path d="M37.8471 78.8664L37.7916 79.9496C38.5024 79.9849 39.2232 80.005 39.934 80.005C40.6599 80.005 41.3959 79.9849 42.1167 79.9446L42.0613 78.8613C40.67 78.9369 39.2484 78.9369 37.8521 78.8613L37.8471 78.8664Z" fill="white"/>
</g>
<defs>
<clipPath id="clip0_80_2407">
<rect width="159" height="80" fill="white"/>
</clipPath>
</defs>
</svg>
