<svg width="222" height="269" viewBox="0 0 222 269" fill="none" xmlns="http://www.w3.org/2000/svg">
<path d="M222 81.052L81.7001 0V31.6426L54.4667 15.9071V47.5497L27.2334 31.8142V63.4568L0 47.7213V187.948L140.293 269V237.357L167.526 253.093V221.45L194.76 237.186V205.543L221.993 221.279V81.052H222ZM55.9384 18.453L81.7001 33.3376V63.2852L55.9384 48.4006V18.453ZM193.295 202.997L167.533 188.113V112.866L83.1718 64.1293V34.1817L193.295 97.8032V202.997ZM28.7051 66.0028L54.4667 80.8873V156.134L138.828 204.871V234.818L28.7051 171.197V66.0028ZM55.9384 155.29V81.7383L81.7001 96.6229V140.227L138.821 173.228V203.176L55.9315 155.29H55.9384ZM55.9384 80.0364V50.0888L81.7001 64.9734V94.921L55.9384 80.0364ZM138.828 171.533L83.1718 139.383V97.4738L138.828 129.624V171.533ZM140.293 174.072L166.055 188.957V218.904L140.293 204.02V174.072ZM140.293 172.377V128.773L83.1718 95.7719V65.8243L166.062 113.71V187.262L140.3 172.377H140.293ZM28.7051 34.3601L54.4667 49.2447V79.1923L28.7051 64.3077V34.3601ZM138.828 266.454L1.4717 187.104V50.2672L27.2334 65.1518V172.041L138.828 236.506V266.454ZM166.062 250.547L140.3 235.662V205.715L166.062 220.599V250.547ZM193.295 234.64L167.533 219.755V189.808L193.295 204.692V234.64ZM220.528 218.733L194.767 203.848V96.9591L83.1718 32.4936V2.54596L220.528 81.8961V218.733Z" fill="white" fill-opacity="0.5"/>
</svg>
