<svg width="80" height="80" viewBox="0 0 80 80" fill="none" xmlns="http://www.w3.org/2000/svg">
<path d="M79.5057 40.6179C79.5057 33.38 77.5366 26.5994 74.1174 20.7662L78.896 19.5592L69.1164 13.9979C61.9114 6.16272 51.5839 1.23996 40.1236 1.23996C35.5551 1.23996 31.1679 2.0309 27.0814 3.46859C25.7672 1.38414 23.448 0 20.8033 0C16.7003 0 13.3718 3.32853 13.3718 7.43151C13.3718 8.70855 13.6931 9.90731 14.2616 10.9578C5.98558 18.1833 0.741504 28.7951 0.741504 40.6179C0.741504 47.1843 2.36457 53.3718 5.21936 58.8218L0 60.0124L10.1256 66.0927C17.3553 74.5911 28.1153 80 40.1236 80C45.4336 80 50.5005 78.9372 55.1267 77.0216C56.4737 78.3975 58.3522 79.2544 60.4325 79.2544C64.5355 79.2544 67.8641 75.9258 67.8641 71.8229C67.8641 70.8424 67.6704 69.9073 67.3244 69.0505C74.8218 61.8744 79.5057 51.7858 79.5057 40.6138V40.6179ZM60.4325 64.3955C56.3296 64.3955 53.001 67.724 53.001 71.827C53.001 73.2935 53.4294 74.6529 54.1627 75.8064C49.8167 77.5489 45.0793 78.5129 40.1195 78.5129C28.3337 78.5129 17.792 73.104 10.8383 64.6426L8.931 53.862L6.33162 57.7425C3.71164 52.5932 2.22451 46.7765 2.22451 40.6138C2.22451 29.3018 7.21318 19.1349 15.102 12.1854C16.4655 13.8167 18.5129 14.8548 20.8033 14.8548C24.9063 14.8548 28.2348 11.5263 28.2348 7.42327C28.2348 6.50051 28.0577 5.61895 27.7487 4.8033C31.6292 3.46035 35.7899 2.71885 40.1236 2.71885C51.0772 2.71885 60.9516 7.39444 67.8764 14.8465L70.1009 25.9114L72.861 21.5695C76.1318 27.172 78.0144 33.6766 78.0144 40.6138C78.0144 51.2132 73.6354 60.7992 66.5994 67.6828C65.2647 65.6972 62.999 64.3872 60.4284 64.3872L60.4325 64.3955Z" fill="white" fill-opacity="0.5"/>
</svg>
