<svg width="20" height="20" viewBox="0 0 20 20" fill="none" xmlns="http://www.w3.org/2000/svg">
<path d="M19.9998 19.9997V12.6747C19.9998 9.07471 19.2248 6.32471 15.0248 6.32471C12.9998 6.32471 11.6498 7.42471 11.0998 8.47471H11.0498V6.64971H7.07477V19.9997H11.2248V13.3747C11.2248 11.6247 11.5498 9.94971 13.6998 9.94971C15.8248 9.94971 15.8498 11.9247 15.8498 13.4747V19.9747H19.9998V19.9997Z" fill="black"/>
<path d="M0.325134 6.6499H4.47514V19.9999H0.325134V6.6499Z" fill="black"/>
<path d="M2.4 0C1.075 0 0 1.075 0 2.4C0 3.725 1.075 4.825 2.4 4.825C3.72501 4.825 4.80001 3.725 4.80001 2.4C4.80001 1.075 3.72501 0 2.4 0Z" fill="black"/>
</svg>
