<svg width="66" height="57" viewBox="0 0 66 57" fill="none" xmlns="http://www.w3.org/2000/svg">
<path d="M64.4284 53.862C63.5621 53.862 62.8568 54.563 62.8568 55.433C62.8568 56.3031 63.558 57.0041 64.4284 57.0041C65.2988 57.0041 66 56.3031 66 55.433C66 54.563 65.2988 53.862 64.4284 53.862ZM55.4482 53.862C54.582 53.862 53.8766 54.563 53.8766 55.433C53.8766 56.3031 54.5779 57.0041 55.4482 57.0041C56.3186 57.0041 57.0199 56.3031 57.0199 55.433C57.0199 54.563 56.3186 53.862 55.4482 53.862ZM46.4681 53.862C45.6019 53.862 44.8965 54.563 44.8965 55.433C44.8965 56.3031 45.5978 57.0041 46.4681 57.0041C47.3385 57.0041 48.0397 56.3031 48.0397 55.433C48.0397 54.563 47.3385 53.862 46.4681 53.862ZM37.488 53.862C36.6217 53.862 35.9164 54.563 35.9164 55.433C35.9164 56.3031 36.6176 57.0041 37.488 57.0041C38.3584 57.0041 39.0596 56.3031 39.0596 55.433C39.0596 54.563 38.3584 53.862 37.488 53.862ZM28.512 53.862C27.6458 53.862 26.9404 54.563 26.9404 55.433C26.9404 56.3031 27.6416 57.0041 28.512 57.0041C29.3824 57.0041 30.0836 56.3031 30.0836 55.433C30.0836 54.563 29.3824 53.862 28.512 53.862ZM19.5319 53.862C18.6656 53.862 17.9603 54.563 17.9603 55.433C17.9603 56.3031 18.6615 57.0041 19.5319 57.0041C20.4022 57.0041 21.1035 56.3031 21.1035 55.433C21.1035 54.563 20.4022 53.862 19.5319 53.862ZM10.5518 53.862C9.6855 53.862 8.98013 54.563 8.98013 55.433C8.98013 56.3031 9.68137 57.0041 10.5518 57.0041C11.4221 57.0041 12.1234 56.3031 12.1234 55.433C12.1234 54.563 11.4221 53.862 10.5518 53.862ZM1.57162 53.862C0.705375 53.862 0 54.563 0 55.433C0 56.3031 0.70125 57.0041 1.57162 57.0041C2.442 57.0041 3.14325 56.3031 3.14325 55.433C3.14325 54.563 2.442 53.862 1.57162 53.862ZM64.4284 44.885C63.5621 44.885 62.8568 45.586 62.8568 46.4561C62.8568 47.3261 63.558 48.0271 64.4284 48.0271C65.2988 48.0271 66 47.3261 66 46.4561C66 45.586 65.2988 44.885 64.4284 44.885ZM55.4482 44.885C54.582 44.885 53.8766 45.586 53.8766 46.4561C53.8766 47.3261 54.5779 48.0271 55.4482 48.0271C56.3186 48.0271 57.0199 47.3261 57.0199 46.4561C57.0199 45.586 56.3186 44.885 55.4482 44.885ZM46.4681 44.885C45.6019 44.885 44.8965 45.586 44.8965 46.4561C44.8965 47.3261 45.5978 48.0271 46.4681 48.0271C47.3385 48.0271 48.0397 47.3261 48.0397 46.4561C48.0397 45.586 47.3385 44.885 46.4681 44.885ZM37.488 44.885C36.6217 44.885 35.9164 45.586 35.9164 46.4561C35.9164 47.3261 36.6176 48.0271 37.488 48.0271C38.3584 48.0271 39.0596 47.3261 39.0596 46.4561C39.0596 45.586 38.3584 44.885 37.488 44.885ZM28.512 44.885C27.6458 44.885 26.9404 45.586 26.9404 46.4561C26.9404 47.3261 27.6416 48.0271 28.512 48.0271C29.3824 48.0271 30.0836 47.3261 30.0836 46.4561C30.0836 45.586 29.3824 44.885 28.512 44.885ZM19.5319 44.885C18.6656 44.885 17.9603 45.586 17.9603 46.4561C17.9603 47.3261 18.6615 48.0271 19.5319 48.0271C20.4022 48.0271 21.1035 47.3261 21.1035 46.4561C21.1035 45.586 20.4022 44.885 19.5319 44.885ZM10.5518 44.885C9.6855 44.885 8.98013 45.586 8.98013 46.4561C8.98013 47.3261 9.68137 48.0271 10.5518 48.0271C11.4221 48.0271 12.1234 47.3261 12.1234 46.4561C12.1234 45.586 11.4221 44.885 10.5518 44.885ZM1.57162 44.885C0.705375 44.885 0 45.586 0 46.4561C0 47.3261 0.70125 48.0271 1.57162 48.0271C2.442 48.0271 3.14325 47.3261 3.14325 46.4561C3.14325 45.586 2.442 44.885 1.57162 44.885ZM64.4284 35.908C63.5621 35.908 62.8568 36.609 62.8568 37.4791C62.8568 38.3491 63.558 39.0501 64.4284 39.0501C65.2988 39.0501 66 38.3491 66 37.4791C66 36.609 65.2988 35.908 64.4284 35.908ZM55.4482 35.908C54.582 35.908 53.8766 36.609 53.8766 37.4791C53.8766 38.3491 54.5779 39.0501 55.4482 39.0501C56.3186 39.0501 57.0199 38.3491 57.0199 37.4791C57.0199 36.609 56.3186 35.908 55.4482 35.908ZM46.4681 35.908C45.6019 35.908 44.8965 36.609 44.8965 37.4791C44.8965 38.3491 45.5978 39.0501 46.4681 39.0501C47.3385 39.0501 48.0397 38.3491 48.0397 37.4791C48.0397 36.609 47.3385 35.908 46.4681 35.908ZM37.488 35.908C36.6217 35.908 35.9164 36.609 35.9164 37.4791C35.9164 38.3491 36.6176 39.0501 37.488 39.0501C38.3584 39.0501 39.0596 38.3491 39.0596 37.4791C39.0596 36.609 38.3584 35.908 37.488 35.908ZM28.512 35.908C27.6458 35.908 26.9404 36.609 26.9404 37.4791C26.9404 38.3491 27.6416 39.0501 28.512 39.0501C29.3824 39.0501 30.0836 38.3491 30.0836 37.4791C30.0836 36.609 29.3824 35.908 28.512 35.908ZM19.5319 35.908C18.6656 35.908 17.9603 36.609 17.9603 37.4791C17.9603 38.3491 18.6615 39.0501 19.5319 39.0501C20.4022 39.0501 21.1035 38.3491 21.1035 37.4791C21.1035 36.609 20.4022 35.908 19.5319 35.908ZM10.5518 35.908C9.6855 35.908 8.98013 36.609 8.98013 37.4791C8.98013 38.3491 9.68137 39.0501 10.5518 39.0501C11.4221 39.0501 12.1234 38.3491 12.1234 37.4791C12.1234 36.609 11.4221 35.908 10.5518 35.908ZM1.57162 35.908C0.705375 35.908 0 36.609 0 37.4791C0 38.3491 0.70125 39.0501 1.57162 39.0501C2.442 39.0501 3.14325 38.3491 3.14325 37.4791C3.14325 36.609 2.442 35.908 1.57162 35.908ZM64.4284 26.931C63.5621 26.931 62.8568 27.632 62.8568 28.5021C62.8568 29.3721 63.558 30.0731 64.4284 30.0731C65.2988 30.0731 66 29.3721 66 28.5021C66 27.632 65.2988 26.931 64.4284 26.931ZM55.4482 26.931C54.582 26.931 53.8766 27.632 53.8766 28.5021C53.8766 29.3721 54.5779 30.0731 55.4482 30.0731C56.3186 30.0731 57.0199 29.3721 57.0199 28.5021C57.0199 27.632 56.3186 26.931 55.4482 26.931ZM46.4681 26.931C45.6019 26.931 44.8965 27.632 44.8965 28.5021C44.8965 29.3721 45.5978 30.0731 46.4681 30.0731C47.3385 30.0731 48.0397 29.3721 48.0397 28.5021C48.0397 27.632 47.3385 26.931 46.4681 26.931ZM37.488 26.931C36.6217 26.931 35.9164 27.632 35.9164 28.5021C35.9164 29.3721 36.6176 30.0731 37.488 30.0731C38.3584 30.0731 39.0596 29.3721 39.0596 28.5021C39.0596 27.632 38.3584 26.931 37.488 26.931ZM28.512 26.931C27.6458 26.931 26.9404 27.632 26.9404 28.5021C26.9404 29.3721 27.6416 30.0731 28.512 30.0731C29.3824 30.0731 30.0836 29.3721 30.0836 28.5021C30.0836 27.632 29.3824 26.931 28.512 26.931ZM19.5319 26.931C18.6656 26.931 17.9603 27.632 17.9603 28.5021C17.9603 29.3721 18.6615 30.0731 19.5319 30.0731C20.4022 30.0731 21.1035 29.3721 21.1035 28.5021C21.1035 27.632 20.4022 26.931 19.5319 26.931ZM10.5518 26.931C9.6855 26.931 8.98013 27.632 8.98013 28.5021C8.98013 29.3721 9.68137 30.0731 10.5518 30.0731C11.4221 30.0731 12.1234 29.3721 12.1234 28.5021C12.1234 27.632 11.4221 26.931 10.5518 26.931ZM1.57162 26.931C0.705375 26.931 0 27.632 0 28.5021C0 29.3721 0.70125 30.0731 1.57162 30.0731C2.442 30.0731 3.14325 29.3721 3.14325 28.5021C3.14325 27.632 2.442 26.931 1.57162 26.931ZM64.4284 17.954C63.5621 17.954 62.8568 18.655 62.8568 19.5251C62.8568 20.3951 63.558 21.0961 64.4284 21.0961C65.2988 21.0961 66 20.3951 66 19.5251C66 18.655 65.2988 17.954 64.4284 17.954ZM55.4482 17.954C54.582 17.954 53.8766 18.655 53.8766 19.5251C53.8766 20.3951 54.5779 21.0961 55.4482 21.0961C56.3186 21.0961 57.0199 20.3951 57.0199 19.5251C57.0199 18.655 56.3186 17.954 55.4482 17.954ZM46.4681 17.954C45.6019 17.954 44.8965 18.655 44.8965 19.5251C44.8965 20.3951 45.5978 21.0961 46.4681 21.0961C47.3385 21.0961 48.0397 20.3951 48.0397 19.5251C48.0397 18.655 47.3385 17.954 46.4681 17.954ZM37.488 17.954C36.6217 17.954 35.9164 18.655 35.9164 19.5251C35.9164 20.3951 36.6176 21.0961 37.488 21.0961C38.3584 21.0961 39.0596 20.3951 39.0596 19.5251C39.0596 18.655 38.3584 17.954 37.488 17.954ZM28.512 17.954C27.6458 17.954 26.9404 18.655 26.9404 19.5251C26.9404 20.3951 27.6416 21.0961 28.512 21.0961C29.3824 21.0961 30.0836 20.3951 30.0836 19.5251C30.0836 18.655 29.3824 17.954 28.512 17.954ZM19.5319 17.954C18.6656 17.954 17.9603 18.655 17.9603 19.5251C17.9603 20.3951 18.6615 21.0961 19.5319 21.0961C20.4022 21.0961 21.1035 20.3951 21.1035 19.5251C21.1035 18.655 20.4022 17.954 19.5319 17.954ZM10.5518 17.954C9.6855 17.954 8.98013 18.655 8.98013 19.5251C8.98013 20.3951 9.68137 21.0961 10.5518 21.0961C11.4221 21.0961 12.1234 20.3951 12.1234 19.5251C12.1234 18.655 11.4221 17.954 10.5518 17.954ZM1.57162 17.954C0.705375 17.954 0 18.655 0 19.5251C0 20.3951 0.70125 21.0961 1.57162 21.0961C2.442 21.0961 3.14325 20.3951 3.14325 19.5251C3.14325 18.655 2.442 17.954 1.57162 17.954ZM64.4284 8.977C63.5621 8.977 62.8568 9.678 62.8568 10.5481C62.8568 11.4181 63.558 12.1191 64.4284 12.1191C65.2988 12.1191 66 11.4181 66 10.5481C66 9.678 65.2988 8.977 64.4284 8.977ZM55.4482 8.977C54.582 8.977 53.8766 9.678 53.8766 10.5481C53.8766 11.4181 54.5779 12.1191 55.4482 12.1191C56.3186 12.1191 57.0199 11.4181 57.0199 10.5481C57.0199 9.678 56.3186 8.977 55.4482 8.977ZM46.4681 8.977C45.6019 8.977 44.8965 9.678 44.8965 10.5481C44.8965 11.4181 45.5978 12.1191 46.4681 12.1191C47.3385 12.1191 48.0397 11.4181 48.0397 10.5481C48.0397 9.678 47.3385 8.977 46.4681 8.977ZM37.488 8.977C36.6217 8.977 35.9164 9.678 35.9164 10.5481C35.9164 11.4181 36.6176 12.1191 37.488 12.1191C38.3584 12.1191 39.0596 11.4181 39.0596 10.5481C39.0596 9.678 38.3584 8.977 37.488 8.977ZM28.512 8.977C27.6458 8.977 26.9404 9.678 26.9404 10.5481C26.9404 11.4181 27.6416 12.1191 28.512 12.1191C29.3824 12.1191 30.0836 11.4181 30.0836 10.5481C30.0836 9.678 29.3824 8.977 28.512 8.977ZM19.5319 8.977C18.6656 8.977 17.9603 9.678 17.9603 10.5481C17.9603 11.4181 18.6615 12.1191 19.5319 12.1191C20.4022 12.1191 21.1035 11.4181 21.1035 10.5481C21.1035 9.678 20.4022 8.977 19.5319 8.977ZM10.5518 8.977C9.6855 8.977 8.98013 9.678 8.98013 10.5481C8.98013 11.4181 9.68137 12.1191 10.5518 12.1191C11.4221 12.1191 12.1234 11.4181 12.1234 10.5481C12.1234 9.678 11.4221 8.977 10.5518 8.977ZM1.57162 8.977C0.705375 8.977 0 9.678 0 10.5481C0 11.4181 0.70125 12.1191 1.57162 12.1191C2.442 12.1191 3.14325 11.4181 3.14325 10.5481C3.14325 9.678 2.442 8.977 1.57162 8.977ZM64.4284 0C63.5621 0 62.8568 0.701006 62.8568 1.57108C62.8568 2.44115 63.558 3.14215 64.4284 3.14215C65.2988 3.14215 66 2.44115 66 1.57108C66 0.701006 65.2988 0 64.4284 0ZM55.4482 0C54.582 0 53.8766 0.701006 53.8766 1.57108C53.8766 2.44115 54.5779 3.14215 55.4482 3.14215C56.3186 3.14215 57.0199 2.44115 57.0199 1.57108C57.0199 0.701006 56.3186 0 55.4482 0ZM46.4681 0C45.6019 0 44.8965 0.701006 44.8965 1.57108C44.8965 2.44115 45.5978 3.14215 46.4681 3.14215C47.3385 3.14215 48.0397 2.44115 48.0397 1.57108C48.0397 0.701006 47.3385 0 46.4681 0ZM37.488 0C36.6217 0 35.9164 0.701006 35.9164 1.57108C35.9164 2.44115 36.6176 3.14215 37.488 3.14215C38.3584 3.14215 39.0596 2.44115 39.0596 1.57108C39.0596 0.701006 38.3584 0 37.488 0ZM28.512 0C27.6458 0 26.9404 0.701006 26.9404 1.57108C26.9404 2.44115 27.6416 3.14215 28.512 3.14215C29.3824 3.14215 30.0836 2.44115 30.0836 1.57108C30.0836 0.701006 29.3824 0 28.512 0ZM19.5319 0C18.6656 0 17.9603 0.701006 17.9603 1.57108C17.9603 2.44115 18.6615 3.14215 19.5319 3.14215C20.4022 3.14215 21.1035 2.44115 21.1035 1.57108C21.1035 0.701006 20.4022 0 19.5319 0ZM10.5518 0C9.6855 0 8.98013 0.701006 8.98013 1.57108C8.98013 2.44115 9.68137 3.14215 10.5518 3.14215C11.4221 3.14215 12.1234 2.44115 12.1234 1.57108C12.1234 0.701006 11.4221 0 10.5518 0ZM3.13913 1.57108C3.13913 2.43703 2.43787 3.14215 1.5675 3.14215C0.697125 3.14215 0 2.43703 0 1.57108C0 0.705129 0.70125 0 1.57162 0C2.442 0 3.14325 0.701006 3.14325 1.57108H3.13913Z" fill="white" fill-opacity="0.5"/>
</svg>
