<svg width="92" height="80" viewBox="0 0 92 80" fill="none" xmlns="http://www.w3.org/2000/svg">
<g clip-path="url(#clip0_80_2468)">
<path d="M46 0L0 80H92L46 0ZM45.3571 3.69158V5.15298H46.6392V3.69158L88.9085 77.2077L88.0093 76.6203L87.3086 77.7009L88.8544 78.7127H2.22109L45.3571 3.69158Z" fill="black"/>
<path d="M38.9212 53.8769L35.6898 55.9783L36.3868 57.0588L39.6181 54.9574L38.9212 53.8769Z" fill="black"/>
<path d="M32.4588 58.0792L29.2275 60.1807L29.9244 61.2612L33.1558 59.1598L32.4588 58.0792Z" fill="black"/>
<path d="M19.533 66.4837L16.3017 68.5851L16.9986 69.6657L20.23 67.5642L19.533 66.4837Z" fill="black"/>
<path d="M25.9959 62.2797L22.7646 64.3811L23.4615 65.4616L26.6929 63.3602L25.9959 62.2797Z" fill="black"/>
<path d="M13.0691 70.6891L9.83771 72.7905L10.5347 73.871L13.766 71.7696L13.0691 70.6891Z" fill="black"/>
<path d="M6.60976 74.8931L3.37842 76.9946L4.07538 78.0751L7.30672 75.9737L6.60976 74.8931Z" fill="black"/>
<path d="M68.6637 63.9539L67.9636 65.0323L71.1887 67.1433L71.8888 66.0649L68.6637 63.9539Z" fill="black"/>
<path d="M62.2089 59.7291L61.5087 60.8075L64.7339 62.9185L65.434 61.8401L62.2089 59.7291Z" fill="black"/>
<path d="M75.1119 68.1731L74.4117 69.2515L77.6369 71.3626L78.337 70.2841L75.1119 68.1731Z" fill="black"/>
<path d="M55.7587 55.5129L55.0586 56.5913L58.2837 58.7023L58.9839 57.6239L55.7587 55.5129Z" fill="black"/>
<path d="M81.5601 72.3923L80.8599 73.4707L84.085 75.5817L84.7852 74.5033L81.5601 72.3923Z" fill="black"/>
<path d="M49.3106 51.2864L48.6104 52.3649L51.8355 54.4759L52.5357 53.3975L49.3106 51.2864Z" fill="black"/>
<path d="M46.6393 32.2125H45.3572V36.0782H46.6393V32.2125Z" fill="black"/>
<path d="M46.6393 24.4812H45.3572V28.3468H46.6393V24.4812Z" fill="black"/>
<path d="M46.6393 9.01862H45.3572V12.8843H46.6393V9.01862Z" fill="black"/>
<path d="M46.6393 39.9438H45.3572V43.8094H46.6393V39.9438Z" fill="black"/>
<path d="M46.6393 16.7499H45.3572V20.6156H46.6393V16.7499Z" fill="black"/>
<path d="M45.3572 49.6877L42.1537 51.7692L42.8508 52.8499L46.0831 50.7502L45.5739 49.9633H46.6393V47.6751H45.3572V49.6877Z" fill="black"/>
</g>
<defs>
<clipPath id="clip0_80_2468">
<rect width="92" height="80" fill="white"/>
</clipPath>
</defs>
</svg>
