<svg width="80" height="80" viewBox="0 0 80 80" fill="none" xmlns="http://www.w3.org/2000/svg">
<g clip-path="url(#clip0_80_2494)">
<path d="M40.0038 0C17.9441 0 0 17.9441 0 40.0038C0 62.0635 17.9441 80.0077 40.0038 80.0077C62.0635 80.0077 80.0077 62.0635 80.0077 40.0038C80.0077 17.9441 62.0559 0 40.0038 0ZM40.0038 77.3356C35.6426 77.3356 30.8974 68.2753 28.9394 54.0935C32.5559 54.4697 36.2952 54.6693 40.0038 54.6693C43.7124 54.6693 47.4518 54.4697 51.0682 54.0935C49.1026 68.2753 44.3651 77.3356 40.0038 77.3356ZM40.0038 52.005C35.9574 52.005 32.1413 51.79 28.6016 51.4061C28.2177 47.8664 28.0027 44.0503 28.0027 40.0038C28.0027 35.9574 28.2177 32.1413 28.6016 28.6016C32.1413 28.2177 35.9574 28.0027 40.0038 28.0027C44.0503 28.0027 47.8664 28.2177 51.4061 28.6016C51.79 32.1413 52.005 35.9574 52.005 40.0038C52.005 44.0503 51.79 47.8664 51.4061 51.4061C47.8664 51.79 44.0503 52.005 40.0038 52.005ZM25.9065 51.0682C11.7247 49.1026 2.66436 44.3651 2.66436 40.0038C2.66436 35.6426 11.7247 30.8974 25.9065 28.9394C25.5303 32.5559 25.3306 36.2952 25.3306 40.0038C25.3306 43.7124 25.5303 47.4518 25.9065 51.0682ZM40.0038 2.66436C44.3651 2.66436 49.1103 11.7247 51.0682 25.9065C47.4518 25.5303 43.7124 25.3306 40.0038 25.3306C36.2952 25.3306 32.5559 25.5303 28.9394 25.9065C30.9051 11.7247 35.6426 2.66436 40.0038 2.66436ZM54.0935 28.9318C68.2753 30.8974 77.3356 35.6349 77.3356 39.9962C77.3356 44.3574 68.2753 49.1026 54.0935 51.0606C54.4697 47.4441 54.6693 43.7048 54.6693 39.9962C54.6693 36.2876 54.4697 32.5482 54.0935 28.9318ZM76.8749 34.1453C72.4292 30.2678 63.699 27.542 53.771 26.229C52.458 16.301 49.7322 7.57078 45.8547 3.12506C61.7641 5.64354 74.3565 18.2359 76.8749 34.1453ZM34.1453 3.13274C30.2678 7.57846 27.542 16.3087 26.229 26.2367C16.301 27.5497 7.57078 30.2755 3.12506 34.153C5.64354 18.2436 18.2436 5.64354 34.1453 3.13274ZM3.13274 45.8547C7.57846 49.7322 16.3087 52.458 26.2367 53.771C27.5497 63.699 30.2755 72.4292 34.153 76.8749C18.2436 74.3565 5.65121 61.7641 3.13274 45.8547ZM45.8547 76.8749C49.7322 72.4292 52.458 63.699 53.771 53.771C63.699 52.458 72.4292 49.7322 76.8749 45.8547C74.3565 61.7641 61.7641 74.3565 45.8547 76.8749Z" fill="white"/>
</g>
<defs>
<clipPath id="clip0_80_2494">
<rect width="80" height="80" fill="white"/>
</clipPath>
</defs>
</svg>
