<svg width="28" height="20" viewBox="0 0 28 20" fill="none" xmlns="http://www.w3.org/2000/svg">
<path d="M13.999 20C13.9966 20 13.9941 20 13.9915 20C13.1466 19.9943 5.67751 19.9269 3.56136 19.3613C2.08245 18.9683 0.915001 17.8156 0.51638 16.3536C-0.0373308 14.2989 -0.00208297 10.3429 0.00176224 10.027C-0.00186934 9.71262 -0.0375444 5.72394 0.514671 3.65232C0.515312 3.65041 0.515739 3.6483 0.51638 3.6464C0.910515 2.20106 2.10424 1.01269 3.55773 0.618679C3.56136 0.617623 3.56521 0.616778 3.56884 0.615722C5.66106 0.0722144 13.1449 0.00570115 13.9915 0H14.0067C14.8537 0.00570115 22.3427 0.073059 24.4394 0.639583C25.9144 1.03148 27.081 2.18269 27.4807 3.64281C28.0552 5.71591 28.002 9.71325 27.9962 10.0507C28.0003 10.383 28.0338 14.3035 27.4833 16.3686C27.4829 16.3707 27.4822 16.3726 27.4818 16.3745C27.083 17.8365 25.9157 18.9892 24.4351 19.3826C24.4332 19.3832 24.431 19.3836 24.4291 19.3843C22.3371 19.9276 14.853 19.9941 14.0067 20C14.0041 20 14.0015 20 13.999 20ZM2.62911 4.2068C2.14291 6.03539 2.18883 9.97318 2.18926 10.0129V10.0414C2.17474 11.1335 2.22579 14.2961 2.62933 15.794C2.825 16.5113 3.40072 17.0795 4.13088 17.2736C5.69225 17.691 11.7756 17.8224 13.999 17.8378C16.2281 17.8224 22.3205 17.6946 23.8703 17.2939C24.5981 17.0992 25.1719 16.5329 25.3689 15.8147C25.7728 14.2949 25.8234 11.1476 25.8087 10.0625C25.8087 10.0511 25.8087 10.0397 25.8089 10.0283C25.829 8.92312 25.7895 5.72352 25.3708 4.21356C25.3703 4.21208 25.3699 4.2106 25.3697 4.20913C25.1732 3.48867 24.5972 2.92046 23.8671 2.72641C22.3209 2.30854 16.2277 2.17762 13.999 2.16221C11.7713 2.17762 5.68499 2.30516 4.13045 2.7055C3.41418 2.90188 2.82543 3.49036 2.62911 4.2068ZM11.211 14.3783V5.62153L18.8672 10L11.211 14.3783Z" fill="black"/>
</svg>
